<svg width="17" height="17" viewBox="0 0 17 17" fill="none" xmlns="http://www.w3.org/2000/svg">
<mask id="path-1-inside-1" fill="white">
<path fill-rule="evenodd" clip-rule="evenodd" d="M0.222397 16.4154L16.9463 8.32687L0.222397 0.238281V0.273287L5.14413 8.32687L0.222397 16.3804V16.4154Z"/>
</mask>
<path d="M16.9463 8.32687L17.3817 9.2271L19.243 8.32687L17.3817 7.42663L16.9463 8.32687ZM0.222397 16.4154H-0.777603V18.0099L0.6578 17.3157L0.222397 16.4154ZM0.222397 0.238281L0.6578 -0.661954L-0.777603 -1.35619V0.238281L0.222397 0.238281ZM0.222397 0.273287L-0.777603 0.273287V0.554658L-0.63088 0.794745L0.222397 0.273287ZM5.14413 8.32687L5.9974 8.84832L6.31608 8.32687L5.9974 7.80541L5.14413 8.32687ZM0.222397 16.3804L-0.63088 15.859L-0.777603 16.0991V16.3804H0.222397ZM16.5109 7.42663L-0.213006 15.5152L0.6578 17.3157L17.3817 9.2271L16.5109 7.42663ZM-0.213006 1.13852L16.5109 9.2271L17.3817 7.42663L0.6578 -0.661954L-0.213006 1.13852ZM1.2224 0.273287V0.238281L-0.777603 0.238281V0.273287L1.2224 0.273287ZM-0.63088 0.794745L4.29085 8.84832L5.9974 7.80541L1.07567 -0.248171L-0.63088 0.794745ZM4.29085 7.80541L-0.63088 15.859L1.07567 16.9019L5.9974 8.84832L4.29085 7.80541ZM1.2224 16.4154V16.3804H-0.777603V16.4154H1.2224Z" fill="url(#paint0_linear)" mask="url(#path-1-inside-1)"/>
<defs>
<linearGradient id="paint0_linear" x1="35.5334" y1="0.238282" x2="24.2485" y2="32.0231" gradientUnits="userSpaceOnUse">
<stop stop-color="#2AF6EA"/>
<stop offset="1" stop-color="#2AADF6"/>
</linearGradient>
</defs>
</svg>
